<?xml version="1.0" standalone="no"?>
<!DOCTYPE svg PUBLIC "-//W3C//DTD SVG 20010904//EN"
 "http://www.w3.org/TR/2001/REC-SVG-20010904/DTD/svg10.dtd">
<svg version="1.0" xmlns="http://www.w3.org/2000/svg"
 width="220.000000pt" height="140.000000pt" viewBox="0 0 220.000000 140.000000"
 preserveAspectRatio="xMidYMid meet">

<g transform="translate(0.000000,140.000000) scale(0.100000,-0.100000)"
fill="#000000" stroke="none">
<path d="M0 700 l0 -700 1100 0 1100 0 0 700 0 700 -1100 0 -1100 0 0 -700z
m899 143 c14 -11 36 -35 49 -54 13 -19 30 -36 38 -39 11 -4 8 -12 -14 -33
l-28 -27 -29 30 c-22 23 -25 30 -12 30 46 0 -13 65 -68 76 -48 9 -100 -15
-123 -56 -16 -29 -52 -42 -52 -19 0 27 44 79 83 99 50 25 115 22 156 -7z
m-483 -104 l39 -122 40 122 39 121 33 0 33 0 0 -150 0 -150 -25 0 -25 0 -1
108 -1 107 -36 -107 c-31 -91 -40 -108 -57 -108 -17 0 -26 17 -57 108 l-36
107 -1 -107 c-1 -101 -2 -108 -21 -108 -19 0 -20 7 -20 150 l0 150 29 0 c28 0
30 -3 67 -121z m660 -1 l41 -123 40 120 c33 100 43 121 61 123 12 2 22 -1 22
-6 0 -6 -22 -72 -49 -149 -43 -124 -51 -138 -73 -141 -24 -3 -28 5 -73 135
-26 76 -50 144 -53 151 -2 7 5 12 20 12 21 0 27 -11 64 -122z m404 102 c0 -18
-7 -20 -85 -20 l-85 0 0 -45 0 -45 80 0 c73 0 80 -2 80 -20 0 -18 -7 -20 -80
-20 l-80 0 0 -45 0 -45 90 0 c83 0 90 -1 90 -20 0 -19 -7 -20 -110 -20 l-110
0 0 150 0 150 105 0 c98 0 105 -1 105 -20z m162 -130 c-2 -123 -6 -150 -18
-150 -12 0 -14 26 -14 150 0 136 2 150 18 150 16 0 17 -13 14 -150z m258 135
c0 -11 -12 -15 -45 -15 l-45 0 0 -135 c0 -113 -2 -135 -15 -135 -17 0 -16 -10
-15 148 l1 122 -50 0 c-39 0 -51 4 -51 15 0 12 19 15 110 15 91 0 110 -3 110
-15z m-1191 -149 c21 -22 21 -24 5 -28 -16 -3 -14 -7 11 -36 55 -61 154 -51
190 18 9 18 23 30 35 30 25 0 25 -4 -1 -50 -59 -104 -206 -106 -268 -3 -14 23
-32 43 -40 43 -10 0 -7 8 9 25 29 31 31 31 59 1z"/>
</g>
</svg>
